<?xml version="1.0"?>
<svg xmlns="http://www.w3.org/2000/svg" xmlns:xlink="http://www.w3.org/1999/xlink" xmlns:svgjs="http://svgjs.com/svgjs" version="1.1" width="512" height="512" x="0" y="0" viewBox="0 0 512 512" style="enable-background:new 0 0 512 512" xml:space="preserve" class=""><rect width="512" height="512" rx="20" ry="20" fill="#bac8d3" shape="rounded" transform="matrix(0.78,0,0,0.78,56.31999999999999,56.31999999999999)"/><g transform="matrix(0.77,0,0,0.77,58.879999999999995,73.87907019615173)"><g xmlns="http://www.w3.org/2000/svg" id="Filled_outline" data-name="Filled outline"><path d="M376,264.733h0a55.267,55.267,0,0,0-9.282-30.656h0A40,40,0,0,1,360,211.889V128A104,104,0,0,0,256,24h0A104,104,0,0,0,152,128v83.889a40,40,0,0,1-6.718,22.188h0A55.267,55.267,0,0,0,136,264.733h0A55.267,55.267,0,0,0,191.267,320H320.733A55.267,55.267,0,0,0,376,264.733Z" style="" fill="#7a432a" data-original="#7a432a" class=""/><path d="M336,320H300a12,12,0,0,1-12-12V240H224v68a12,12,0,0,1-12,12H176a48,48,0,0,0-48,48V496H384V368A48,48,0,0,0,336,320Z" style="" fill="#db9b6c" data-original="#fdc8a2" class=""/><path d="M288,240v49.33a80.1,80.1,0,0,1-64,0V240Z" style="" fill="#db9b6c" data-original="#fdbf92" class=""/><path d="M336,496V480h0a54.626,54.626,0,0,0,16-38.627v-.833a54.625,54.625,0,0,0-9.174-30.3L336,400h48V368a48,48,0,0,0-48-48H304l-4.12,10.29a47.26,47.26,0,0,1-87.76,0L208,320H176a48,48,0,0,0-48,48v32h48l-6.826,10.239A54.625,54.625,0,0,0,160,440.54v.833A54.626,54.626,0,0,0,176,480h0v16" style="" fill="#e37979" data-original="#f6aeae" class=""/><path d="M256,272h0a80,80,0,0,1-80-80V168l11.842-6.579A305.266,305.266,0,0,0,288,72h0a111.987,111.987,0,0,0,39.853,65.483L336,144v48A80,80,0,0,1,256,272Z" style="" fill="#db9b6c" data-original="#fdc8a2" class=""/><path d="M360,144h8a0,0,0,0,1,0,0v48a0,0,0,0,1,0,0h-8a24,24,0,0,1-24-24v0A24,24,0,0,1,360,144Z" transform="translate(704 336) rotate(-180)" style="" fill="#fcb079" data-original="#fcb079"/><path d="M373.627,354.391l15.046-5.444a56.126,56.126,0,0,0-31.307-32.682A63.219,63.219,0,0,0,384,264.731a61.754,61.754,0,0,0-4.47-22.626c-2.841-7.215-7.92-13.552-10.157-20.958A31.706,31.706,0,0,1,368,211.89V189.132a31.91,31.91,0,0,0,0-42.264V128A112,112,0,0,0,176.8,48.8l11.314,11.314A96,96,0,0,1,352,128v9.013A31.94,31.94,0,0,0,344,136h-5.193l-5.956-4.765a104.132,104.132,0,0,1-37.006-60.8A8,8,0,0,0,281.49,67.35a299.125,299.125,0,0,1-97.533,87.078l-11.842,6.579A8,8,0,0,0,168,168v24a88.094,88.094,0,0,0,48,78.372V308a4,4,0,0,1-4,4H191.27A47.277,47.277,0,0,1,144,264.731a47.862,47.862,0,0,1,7.936-26.213A47.859,47.859,0,0,0,160,211.89V128a95.394,95.394,0,0,1,17.3-54.991l-13.107-9.176A111.321,111.321,0,0,0,144,128v83.89a31.911,31.911,0,0,1-5.381,17.759A64.96,64.96,0,0,0,128,264.73a62.815,62.815,0,0,0,18.53,44.734,63.934,63.934,0,0,0,8.044,6.805A56.082,56.082,0,0,0,120,368V496h16V408h25.122A62.41,62.41,0,0,0,152,440.54v.833a62.174,62.174,0,0,0,16,41.814V496h16V480a8,8,0,0,0-2.343-5.657A46.318,46.318,0,0,1,168,441.373v-.833a46.481,46.481,0,0,1,7.831-25.864l6.825-10.238A8.005,8.005,0,0,0,184,400V384H168v8H136V368a40.045,40.045,0,0,1,40-40h26.586l2.1,5.256a55.259,55.259,0,0,0,102.617.008L309.414,328H336A40.118,40.118,0,0,1,373.627,354.391ZM360,168a16.019,16.019,0,0,1-16,16V152A16.019,16.019,0,0,1,360,168ZM183.735,192.018a112.179,112.179,0,0,1,.425-19.3c1.793-1.025,15.962-7.707,15.962-9.009a14.024,14.024,0,1,0,17.5-11.3A329.881,329.881,0,0,0,284.576,89.99a122.477,122.477,0,0,0,40.2,55.249,6.455,6.455,0,0,1,3.318,7.133c-.96,18.7,2.066,37.764-2.16,56.007a71.9,71.9,0,0,1-94.019,51.559,71.185,71.185,0,0,1-35.45-27.626C188.6,220.39,184.686,206.342,183.735,192.018ZM256,352a39.262,39.262,0,0,1-36.453-24.684l-.282-.7A20.019,20.019,0,0,0,232,308V276.673a88.228,88.228,0,0,0,48,0V308a20.017,20.017,0,0,0,12.735,18.614l-.284.707A39.062,39.062,0,0,1,256,352Zm44-40a4,4,0,0,1-4-4V270.372A88.169,88.169,0,0,0,343.633,200H344a31.94,31.94,0,0,0,8-1.013v12.9a47.7,47.7,0,0,0,2.062,13.905C358.312,239.742,368,249.25,368,264.73A47.323,47.323,0,0,1,320.73,312Z" fill="#000000" data-original="#000000" style="" class=""/><path d="M376,368v24H344v-8H328v16a8.005,8.005,0,0,0,1.344,4.438l6.825,10.238A46.481,46.481,0,0,1,344,440.54v.833a46.318,46.318,0,0,1-13.657,32.97A8,8,0,0,0,328,480v16h16V483.187a62.174,62.174,0,0,0,16-41.814v-.833A62.41,62.41,0,0,0,350.878,408H376v88h16V368Z" fill="#000000" data-original="#000000" style="" class=""/><path d="M256,384c-14.775,0-36.38-7.693-42.343-13.657l-11.314,11.314C212.674,391.987,239.669,400,256,400s43.326-8.013,53.657-18.343l-11.314-11.314C292.38,376.307,270.775,384,256,384Z" fill="#000000" data-original="#000000" style="" class=""/><path d="M298,180a14,14,0,1,0-14-14A14.015,14.015,0,0,0,298,180Z" fill="#000000" data-original="#000000" style="" class=""/><path d="M280,208H264a8,8,0,0,1-16,0H232a24,24,0,0,0,48,0Z" fill="#000000" data-original="#000000" style="" class=""/></g></g></svg>
