<svg id="Icons" height="512" viewBox="0 0 74 74" width="512" xmlns="http://www.w3.org/2000/svg"><path d="m71 42.77a1 1 0 0 1 -1-1v-3.66a1 1 0 0 1 2 0v3.66a1 1 0 0 1 -1 1z"/><path d="m69 72.67h-64a3 3 0 0 1 -3-3v-64a3 3 0 0 1 3-3h64a3 3 0 0 1 3 3v23.63a1 1 0 0 1 -2 0v-23.63a1 1 0 0 0 -1-1h-64a1 1 0 0 0 -1 1v64a1 1 0 0 0 1 1h64a1 1 0 0 0 1-1v-6.55a1 1 0 0 1 2 0v6.55a3 3 0 0 1 -3 3z"/><path d="m71 55.31a1 1 0 0 1 -1-1v-3.74a1 1 0 1 1 2 0v3.74a1 1 0 0 1 -1 1z"/><path d="m71 19.667h-68a1 1 0 0 1 0-2h68a1 1 0 0 1 0 2z"/><path d="m62.5 14.484a3.318 3.318 0 1 1 3.317-3.317 3.321 3.321 0 0 1 -3.317 3.317zm0-4.635a1.318 1.318 0 1 0 1.317 1.318 1.319 1.319 0 0 0 -1.317-1.318z"/><path d="m52.833 14.484a3.318 3.318 0 1 1 3.317-3.317 3.321 3.321 0 0 1 -3.317 3.317zm0-4.635a1.318 1.318 0 1 0 1.317 1.318 1.318 1.318 0 0 0 -1.317-1.318z"/><path d="m43.172 14.484a3.318 3.318 0 1 1 3.317-3.317 3.322 3.322 0 0 1 -3.317 3.317zm0-4.635a1.318 1.318 0 1 0 1.317 1.318 1.319 1.319 0 0 0 -1.317-1.318z"/><path d="m33.521 12.167h-24.333a1 1 0 0 1 0-2h24.333a1 1 0 0 1 0 2z"/><path d="m47.286 53.881a1 1 0 0 1 -.707-1.707l7.007-7.007-7.007-7.008a1 1 0 0 1 1.414-1.414l7.714 7.714a1 1 0 0 1 0 1.415l-7.714 7.714a1 1 0 0 1 -.707.293z"/><path d="m26.715 53.881a1 1 0 0 1 -.707-.293l-7.715-7.714a1 1 0 0 1 0-1.415l7.715-7.714a1 1 0 0 1 1.414 1.414l-7.008 7.008 7.008 7.007a1 1 0 0 1 -.707 1.707z"/><path d="m31.706 61.52a1 1 0 0 1 -.945-1.327l10.588-30.7a1 1 0 0 1 1.89.652l-10.588 30.701a1 1 0 0 1 -.945.674z"/></svg>