<?xml version="1.0"?>
<svg xmlns="http://www.w3.org/2000/svg" xmlns:xlink="http://www.w3.org/1999/xlink" xmlns:svgjs="http://svgjs.com/svgjs" version="1.1" width="512" height="512" x="0" y="0" viewBox="0 0 64 64" style="enable-background:new 0 0 512 512" xml:space="preserve" class=""><g><path xmlns="http://www.w3.org/2000/svg" d="m20.5 17.5s-1 6-2 7c0 0-3 0-4 2s0 8 5 6c0 0-2 3 1 5s6-1 6-1 8 1 15-2c0 0 1 2 4 2s5-3 3-5c0 0 2 2 5 0s.789-6.106-1-7c-2-1-3-1-3-1s-3 0-4-6c0 0-4-4-17-4-8 0-8 4-8 4z" fill="#442611" data-original="#fa8cb4" style="" class=""/><path xmlns="http://www.w3.org/2000/svg" d="m22.697 38.68c-.807 0-1.65-.214-2.475-.764-1.763-1.175-1.976-2.676-1.844-3.729.04-.322.115-.621.202-.884-1.783.366-2.911-.322-3.572-1.042-1.441-1.565-1.697-4.503-.956-5.985.959-1.917 3.413-2.22 4.203-2.268.597-.896 1.363-4.274 1.745-6.559.025-.514.478-4.449 8.5-4.449 13.057 0 17.185 3.978 17.354 4.146.073.073.122.169.14.271.906 5.439 3.488 5.581 3.515 5.582.109 0 1.172.03 3.216 1.053 1.225.612 2.622 2.497 2.745 4.475.088 1.421-.497 2.592-1.691 3.389-1.645 1.096-3.041 1.092-4.031.807.123.575.065 1.181-.182 1.778-.621 1.494-2.254 2.499-4.066 2.499-2.45 0-3.698-1.225-4.19-1.879-6.349 2.582-13.25 2.043-14.634 1.901-.831.756-2.325 1.658-3.979 1.658zm-3.198-6.68c.147 0 .291.065.388.185.139.169.15.409.03.592-.175.266-1.636 2.644.86 4.308 2.628 1.753 5.342-.91 5.369-.938.109-.109.264-.161.415-.143.079.011 7.953.945 14.741-1.964.243-.103.525-.002.645.236.035.068.923 1.724 3.553 1.724 1.391 0 2.682-.774 3.141-1.882.335-.808.159-1.611-.494-2.265-.098-.097-.147-.225-.147-.353s.049-.256.146-.354c.195-.195.512-.195.707 0 .069.067 1.765 1.675 4.369-.062.894-.596 1.313-1.436 1.248-2.494-.097-1.549-1.234-3.162-2.194-3.643-1.835-.917-2.772-.947-2.781-.947-.134 0-3.369-.071-4.458-6.242-.719-.594-5.091-3.758-16.537-3.758-7.336 0-7.497 3.362-7.5 3.506-.001.023-.003.053-.007.076-.171 1.028-1.08 6.212-2.14 7.271-.093.094-.22.147-.352.147-.027 0-2.706.028-3.554 1.724-.521 1.042-.416 3.543.797 4.861.839.911 2.039 1.062 3.57.451.06-.024.123-.036.185-.036zm1.001-14.5h.01z" fill="#000000" data-original="#785ae6" style="" class=""/><path xmlns="http://www.w3.org/2000/svg" d="m38.5 28.5v9.254h.001c14.999 3.876 15.999 6.895 15.999 13.746v11h-37s0-5.505 0-9.818c0-7.182-.055-11.182 11.945-14.182v-4z" fill="#c88c5a" data-original="#c88c5a" style="" class=""/><path xmlns="http://www.w3.org/2000/svg" d="m38.501 37.754-.001 2h.001c14.999 3.876 15.999 6.895 15.999 13.746 0-.633 0-1.29 0-2 0-6.851-1-9.87-15.999-13.746z" fill="#e1a271" data-original="#e1a271" style="" class=""/><path xmlns="http://www.w3.org/2000/svg" d="m29.445 40.5v-2c-12 3-11.945 7-11.945 14.182v2c0-7.182-.055-11.182 11.945-14.182z" fill="#e1a271" data-original="#e1a271" style="" class=""/><path xmlns="http://www.w3.org/2000/svg" d="m17.5 62.5h37s0-.611 0-2h-37z" fill="#b47846" data-original="#b47846" style=""/><path xmlns="http://www.w3.org/2000/svg" d="m33.5 44c-7.414 0-7.5-4.62-7.5-4.667 0-.276.224-.5.5-.5.275 0 .498.223.5.497.003.159.138 3.67 6.5 3.67 6.669 0 9.604-3.922 9.632-3.962.163-.223.477-.271.699-.109.223.163.271.476.109.699-.129.178-3.268 4.372-10.44 4.372zm-6.5-4.667h.01z" fill="#f0f0e6" data-original="#f0f0e6" style=""/><path xmlns="http://www.w3.org/2000/svg" d="m45.5 52.775c-.276 0-.5-.224-.5-.5v-2.775c-.02-.229-.474-6.534 1.865-9.481.171-.219.487-.253.702-.081.217.172.253.486.081.702-2.098 2.645-1.654 8.761-1.649 8.822l.001 2.813c0 .277-.224.5-.5.5z" fill="#aad2ff" data-original="#aad2ff" style="" class=""/><path xmlns="http://www.w3.org/2000/svg" d="m20.5 51.75c-.053 0-.105-.008-.158-.025-.262-.088-.403-.371-.316-.633.423-1.268.851-2.371.975-2.687v-6.825c0-.276.224-.5.5-.5s.5.224.5.5v6.92c0 .063-.012.127-.036.186-.005.013-.5 1.255-.989 2.723-.072.208-.267.341-.476.341z" fill="#aad2ff" data-original="#aad2ff" style="" class=""/><path xmlns="http://www.w3.org/2000/svg" d="m45.379 52.015c-.079.02-8.031 1.985-15.879 1.985-7.438 0-8.515-2.876-8.522-2.897l-.459-1.491-.493 1.48c-.681 2.042-1.026 3.525-1.026 4.408 0 1.096.526 2.413 1.036 3.686.474 1.185.964 2.41.964 3.314v.5h25v-11.141z" fill="#aad2ff" data-original="#aad2ff" style="" class=""/><path xmlns="http://www.w3.org/2000/svg" d="m21 62.5h25v-2h-25.463c.261.732.463 1.432.463 2z" fill="#96bef0" data-original="#96bef0" style=""/><path xmlns="http://www.w3.org/2000/svg" d="m31.5 46.999c-.128 0-.255-.048-.353-.145-.24-.238-1.001-.854-1.647-.854-1.087 0-3.008-.945-3.224-1.053-.247-.123-.347-.424-.224-.671.125-.246.424-.347.671-.224.528.264 2.055.948 2.777.948 1.173 0 2.236 1.029 2.354 1.146.195.195.195.511 0 .706-.098.098-.226.147-.354.147z" fill="#be7846" data-original="#be7846" style=""/><path xmlns="http://www.w3.org/2000/svg" d="m54.5 63h-37c-.276 0-.5-.224-.5-.5v-9.817c0-5.434 0-9.291 5.263-12.142.242-.13.545-.042.678.201.132.243.042.546-.201.678-4.74 2.567-4.74 5.805-4.74 11.167v9.413h36v-10.5c0-5.057-.602-7.725-6.094-10.329-.25-.119-.356-.417-.238-.666.119-.25.422-.354.666-.238 6.202 2.941 6.666 6.357 6.666 11.233v11c0 .276-.224.5-.5.5zm-36.5-.5h.01z" fill="#000000" data-original="#785ae6" style="" class=""/><path xmlns="http://www.w3.org/2000/svg" d="m35.5 46.999c-.128 0-.256-.049-.354-.146-.195-.195-.195-.511 0-.706.118-.118 1.181-1.147 2.354-1.147.77 0 3.782-.711 4.879-.985.27-.066.539.096.606.364.066.268-.097.539-.364.606-.415.104-4.089 1.015-5.121 1.015-.646 0-1.407.616-1.647.854-.098.097-.225.145-.353.145z" fill="#be7846" data-original="#be7846" style=""/><path xmlns="http://www.w3.org/2000/svg" d="m21.5 13.5v14c0 3.866 3.134 7 7 7h5c3.314 0 6-2.686 6-6h2c1.657 0 3-1.343 3-3v-1c0-1.657-1.343-3-3-3h-2v-8l-10-2z" fill="#e1a271" data-original="#e1a271" style="" class=""/><path xmlns="http://www.w3.org/2000/svg" d="m34.5 14.919s1 1.581 2 3.581 3.189 3 3.189 3l-.189-6z" fill="#442611" data-original="#fa8cb4" style="" class=""/><path xmlns="http://www.w3.org/2000/svg" d="m44.5 18.5s7 3 10 0c1-1-7-4.23-7-4.23z" fill="#dda0dd" data-original="#8d7bd4" style="" class=""/><path xmlns="http://www.w3.org/2000/svg" d="m50.562 20.335c-2.998 0-6.063-1.292-6.259-1.375-.139-.06-.243-.179-.284-.324s-.014-.302.073-.425l3-4.229c.135-.189.378-.262.596-.175 2.129.86 7.112 3.003 7.382 4.33.054.265-.024.525-.216.717-1.114 1.114-2.694 1.481-4.292 1.481zm-5.283-2.069c1.666.604 6.464 2.081 8.758-.015-.486-.659-3.52-2.196-6.358-3.367z" fill="#000000" data-original="#785ae6" style="" class=""/><path xmlns="http://www.w3.org/2000/svg" d="m44.5 18.5c-4-3-10-4-17-4-6 0-7 3-7 3s-1-16 13-16c11 0 14 9 14 14 0 2-3 3-3 3z" fill="#dda0dd" data-original="#8d7bd4" style="" class=""/><path xmlns="http://www.w3.org/2000/svg" d="m20.532 17.422c.281-4.328 2.125-13.922 12.968-13.922 10.009 0 13.384 7.443 13.913 12.553.051-.176.087-.358.087-.553 0-5-3-14-14-14-14 0-13 16-13 16s.012-.032.032-.078z" fill="#968cd2" data-original="#968cd2" style=""/><g xmlns="http://www.w3.org/2000/svg" fill="#785ae6"><path d="m44.5 19c-.106 0-.212-.034-.3-.1-3.499-2.625-8.962-3.9-16.7-3.9-5.508 0-6.488 2.555-6.527 2.663-.08.223-.303.352-.542.329-.234-.033-.415-.225-.43-.461-.021-.325-.446-8.023 4.077-12.838 2.302-2.451 5.473-3.693 9.422-3.693 11.47 0 14.5 9.484 14.5 14.5 0 2.334-3.205 3.429-3.342 3.475-.052.016-.105.025-.158.025zm-17-5c7.805 0 13.396 1.288 17.079 3.938.846-.34 2.421-1.225 2.421-2.438 0-4.669-2.821-13.5-13.5-13.5-3.66 0-6.584 1.135-8.689 3.374-3.079 3.274-3.697 8.156-3.804 10.596.987-.923 2.899-1.97 6.493-1.97z" fill="#000000" data-original="#785ae6" style="" class=""/><path d="m31.5 35h-3c-4.136 0-7.5-3.364-7.5-7.5v-10c0-.276.224-.5.5-.5s.5.224.5.5v10c0 3.584 2.916 6.5 6.5 6.5h3c.276 0 .5.224.5.5s-.224.5-.5.5z" fill="#000000" data-original="#785ae6" style="" class=""/><path d="m31.5 26c-.276 0-.5-.224-.5-.5v-3c0-.276.224-.5.5-.5s.5.224.5.5v3c0 .276-.224.5-.5.5z" fill="#000000" data-original="#785ae6" style="" class=""/><path d="m23.5 26c-.276 0-.5-.224-.5-.5v-3c0-.276.224-.5.5-.5s.5.224.5.5v3c0 .276-.224.5-.5.5z" fill="#000000" data-original="#785ae6" style="" class=""/><path d="m26.5 28c-1.738 0-2.893-1.292-2.893-2.146 0-.242.089-.461.249-.615.114-.11.317-.239.644-.239.289 0 1.034-1.186 1.525-2.658.089-.261.372-.403.633-.316.262.088.403.371.316.633-.321.964-1.174 3.155-2.327 3.331.042.094.123.223.258.363.188.194.718.647 1.595.647.276 0 .5.224.5.5s-.224.5-.5.5z" fill="#000000" data-original="#785ae6" style="" class=""/><path d="m28.5 31c-2.472 0-2.5-1.438-2.5-1.5 0-.276.224-.5.5-.5.269 0 .487.211.499.476.029.183.378.524 1.501.524 2.23 0 2.506-.565 2.508-.571 0-.276.22-.465.496-.465s.496.26.496.536c0 .352-.252 1.5-3.5 1.5zm-1.5-1.5h.01z" fill="#000000" data-original="#785ae6" style="" class=""/><path d="m31.5 24.041c-.125 0-.249-.046-.347-.14-.199-.191-.205-.508-.014-.707l1-1.041c.191-.197.508-.205.707-.014s.205.508.014.707l-1 1.041c-.097.102-.229.154-.36.154z" fill="#000000" data-original="#785ae6" style="" class=""/><path d="m23.5 24.041c-.131 0-.263-.052-.36-.153l-1-1.041c-.191-.199-.186-.516.014-.707.201-.191.516-.184.707.014l1 1.041c.191.199.186.516-.014.707-.098.093-.222.139-.347.139z" fill="#000000" data-original="#785ae6" style="" class=""/><path d="m34.5 22c-.209 0-.404-.133-.475-.342-.35-1.05-1.013-1.651-1.971-1.788-.738-.105-1.391.102-1.396.104-.261.088-.545-.055-.633-.316-.087-.262.055-.545.316-.633.035-.011.876-.285 1.854-.146.938.134 2.182.67 2.779 2.462.087.262-.055.545-.316.633-.053.018-.105.026-.158.026z" fill="#000000" data-original="#785ae6" style="" class=""/><path d="m21.5 21.326c-.088 0-.176-.022-.256-.07-.237-.142-.315-.449-.174-.686 1.162-1.947 3.42-1.58 3.516-1.562.271.047.454.306.406.578-.047.271-.302.454-.577.407-.077-.016-1.684-.257-2.485 1.089-.094.157-.26.244-.43.244z" fill="#000000" data-original="#785ae6" style="" class=""/></g><path xmlns="http://www.w3.org/2000/svg" d="m25.5 12.5s2-1 9 0c0 0 1-6-5-6-5 0-4 6-4 6z" fill="#442611" data-original="#fa8cb4" style="" class=""/><g xmlns="http://www.w3.org/2000/svg" fill="#785ae6"><path d="m34.501 13c-.023 0-.048-.002-.071-.005-6.66-.951-8.693-.054-8.713-.045-.14.065-.308.063-.447-.01-.138-.072-.237-.204-.263-.358-.022-.132-.521-3.264 1.097-5.175.791-.933 1.933-1.407 3.396-1.407 1.909 0 3.364.574 4.324 1.708 1.637 1.933 1.188 4.755 1.169 4.874-.041.244-.252.418-.492.418zm-5.424-1.441c1.26 0 2.89.097 4.975.375.041-.803-.016-2.433-.994-3.583-.762-.897-1.959-1.351-3.558-1.351-1.155 0-2.041.354-2.634 1.054-.955 1.128-.988 2.889-.932 3.79.577-.135 1.571-.285 3.143-.285z" fill="#000000" data-original="#785ae6" style="" class=""/><path d="m38.376 32.24c-.102 0-.203-.03-.291-.094-.225-.16-.276-.473-.115-.697.664-.928 1.03-1.976 1.03-2.949 0-.276.224-.5.5-.5h2c1.379 0 2.5-1.121 2.5-2.5v-1c0-1.379-1.121-2.5-2.5-2.5h-1.812c-.276 0-.5-.224-.5-.5s.224-.5.5-.5h1.812c1.93 0 3.5 1.57 3.5 3.5v1c0 1.93-1.57 3.5-3.5 3.5h-1.524c-.1 1.034-.507 2.073-1.193 3.031-.098.137-.252.209-.407.209z" fill="#000000" data-original="#785ae6" style="" class=""/><path d="m54.5 63h-37c-.276 0-.5-.224-.5-.5v-9.817c0-7.188.001-11.497 11.944-14.571v-3.612c0-.276.224-.5.5-.5s.5.224.5.5v4c0 .229-.156.43-.379.485-11.565 2.892-11.565 6.47-11.565 13.599v9.416h36v-10.5c0-6.402-.664-9.65-15.625-13.516-.221-.057-.375-.256-.375-.484v-5.76c0-.276.224-.5.5-.5s.5.224.5.5v5.373c14.543 3.808 16 7.162 16 14.387v11c0 .276-.224.5-.5.5z" fill="#000000" data-original="#785ae6" style="" class=""/></g></g></svg>
